<svg width="32" height="32" viewBox="0 0 32 32" fill="none" xmlns="http://www.w3.org/2000/svg">
<rect width="32" height="32" rx="16" fill="#98FAEC"/>
<path d="M14.3281 10.4531L13.9375 10.5C13.9375 10.5 12.1855 10.6914 10.9062 11.7188H10.8906L10.875 11.7344C10.5879 11.998 10.4629 12.3223 10.2656 12.7969C10.0684 13.2715 9.85742 13.877 9.67188 14.5469C9.30078 15.8887 9 17.5137 9 19V19.125L9.0625 19.25C9.52539 20.0625 10.3477 20.5801 11.1094 20.9375C11.8711 21.2949 12.5293 21.4844 12.9844 21.5L13.2812 21.5156L13.4375 21.25L13.9844 20.2812C14.5645 20.4121 15.2324 20.5 16 20.5C16.7676 20.5 17.4355 20.4121 18.0156 20.2812L18.5625 21.25L18.7188 21.5156L19.0156 21.5C19.4707 21.4844 20.1289 21.2949 20.8906 20.9375C21.6523 20.5801 22.4746 20.0625 22.9375 19.25L23 19.125V19C23 17.5137 22.6992 15.8887 22.3281 14.5469C22.1426 13.877 21.9316 13.2715 21.7344 12.7969C21.5371 12.3223 21.4121 11.998 21.125 11.7344L21.1094 11.7188H21.0938C19.8145 10.6914 18.0625 10.5 18.0625 10.5L17.6719 10.4531L17.5312 10.8125C17.5312 10.8125 17.3867 11.1777 17.2969 11.5938C16.7305 11.5176 16.2676 11.5 16 11.5C15.7324 11.5 15.2695 11.5176 14.7031 11.5938C14.6133 11.1777 14.4688 10.8125 14.4688 10.8125L14.3281 10.4531ZM13.6406 11.5938C13.6621 11.6641 13.6836 11.7246 13.7031 11.7812C13.0566 11.9414 12.3672 12.1855 11.7344 12.5781L12.2656 13.4219C13.5625 12.6172 15.4258 12.5 16 12.5C16.5742 12.5 18.4375 12.6172 19.7344 13.4219L20.2656 12.5781C19.6328 12.1855 18.9434 11.9414 18.2969 11.7812C18.3164 11.7246 18.3379 11.6641 18.3594 11.5938C18.8262 11.6875 19.7168 11.9023 20.4531 12.4844C20.4492 12.4863 20.6406 12.7754 20.8125 13.1875C20.9883 13.6113 21.1836 14.1758 21.3594 14.8125C21.6973 16.0332 21.9629 17.5195 21.9844 18.8281C21.6699 19.3086 21.0859 19.7422 20.4688 20.0312C19.9297 20.2832 19.5039 20.375 19.25 20.4219L19 20C19.1484 19.9453 19.2949 19.8848 19.4219 19.8281C20.1914 19.4902 20.6094 19.125 20.6094 19.125L19.9531 18.375C19.9531 18.375 19.6719 18.6328 19.0156 18.9219C18.3594 19.2109 17.3574 19.5 16 19.5C14.6426 19.5 13.6406 19.2109 12.9844 18.9219C12.3281 18.6328 12.0469 18.375 12.0469 18.375L11.3906 19.125C11.3906 19.125 11.8086 19.4902 12.5781 19.8281C12.7051 19.8848 12.8516 19.9453 13 20L12.75 20.4219C12.4961 20.375 12.0703 20.2832 11.5312 20.0312C10.9141 19.7422 10.3301 19.3086 10.0156 18.8281C10.0371 17.5195 10.3027 16.0332 10.6406 14.8125C10.8164 14.1758 11.0117 13.6113 11.1875 13.1875C11.3594 12.7754 11.5508 12.4863 11.5469 12.4844C12.2832 11.9023 13.1738 11.6875 13.6406 11.5938ZM14.25 15C13.8633 15 13.5215 15.2207 13.3125 15.5C13.1035 15.7793 13 16.123 13 16.5C13 16.877 13.1035 17.2207 13.3125 17.5C13.5215 17.7793 13.8633 18 14.25 18C14.6367 18 14.9785 17.7793 15.1875 17.5C15.3965 17.2207 15.5 16.877 15.5 16.5C15.5 16.123 15.3965 15.7793 15.1875 15.5C14.9785 15.2207 14.6367 15 14.25 15ZM17.75 15C17.3633 15 17.0215 15.2207 16.8125 15.5C16.6035 15.7793 16.5 16.123 16.5 16.5C16.5 16.877 16.6035 17.2207 16.8125 17.5C17.0215 17.7793 17.3633 18 17.75 18C18.1367 18 18.4785 17.7793 18.6875 17.5C18.8965 17.2207 19 16.877 19 16.5C19 16.123 18.8965 15.7793 18.6875 15.5C18.4785 15.2207 18.1367 15 17.75 15ZM14.25 16C14.2773 16 14.3125 16.0098 14.375 16.0938C14.4375 16.1777 14.5 16.3242 14.5 16.5C14.5 16.6758 14.4375 16.8223 14.375 16.9062C14.3125 16.9902 14.2773 17 14.25 17C14.2227 17 14.1875 16.9902 14.125 16.9062C14.0625 16.8223 14 16.6758 14 16.5C14 16.3242 14.0625 16.1777 14.125 16.0938C14.1875 16.0098 14.2227 16 14.25 16ZM17.75 16C17.7773 16 17.8125 16.0098 17.875 16.0938C17.9375 16.1777 18 16.3242 18 16.5C18 16.6758 17.9375 16.8223 17.875 16.9062C17.8125 16.9902 17.7773 17 17.75 17C17.7227 17 17.6875 16.9902 17.625 16.9062C17.5625 16.8223 17.5 16.6758 17.5 16.5C17.5 16.3242 17.5625 16.1777 17.625 16.0938C17.6875 16.0098 17.7227 16 17.75 16Z" fill="#292F36"/>
</svg>
