<svg width="32" height="32" viewBox="0 0 32 32" fill="none" xmlns="http://www.w3.org/2000/svg">
<rect width="32" height="32" rx="16" fill="#98FAEC"/>
<path d="M16 9.4978C14.417 9.49787 12.8856 10.0612 11.68 11.087C10.4743 12.1129 9.673 13.5342 9.41942 15.0968C9.16584 16.6594 9.47654 18.2612 10.2959 19.6156C11.1153 20.9701 12.3899 21.9888 13.8917 22.4895C14.225 22.5478 14.35 22.3478 14.35 22.1728C14.35 22.0145 14.3417 21.4895 14.3417 20.9311C12.6667 21.2395 12.2333 20.5228 12.1 20.1478C11.952 19.7831 11.7175 19.4599 11.4167 19.2061C11.1833 19.0811 10.85 18.7728 11.4083 18.7645C11.6215 18.7876 11.826 18.8618 12.0044 18.9807C12.1828 19.0997 12.33 19.2599 12.4333 19.4478C12.5245 19.6116 12.6471 19.7558 12.7941 19.8721C12.9411 19.9885 13.1096 20.0746 13.29 20.1257C13.4704 20.1768 13.6591 20.1918 13.8453 20.1699C14.0314 20.1479 14.2114 20.0894 14.375 19.9978C14.4038 19.6589 14.5549 19.342 14.8 19.1062C13.3167 18.9395 11.7667 18.3645 11.7667 15.8145C11.7573 15.1519 12.0018 14.5109 12.45 14.0228C12.2462 13.447 12.27 12.815 12.5167 12.2562C12.5167 12.2562 13.075 12.0811 14.35 12.9395C15.4409 12.6395 16.5925 12.6395 17.6833 12.9395C18.9583 12.0728 19.5167 12.2562 19.5167 12.2562C19.7633 12.815 19.7872 13.447 19.5833 14.0228C20.0329 14.51 20.2776 15.1516 20.2667 15.8145C20.2667 18.3728 18.7083 18.9395 17.225 19.1062C17.3841 19.2674 17.5066 19.461 17.5843 19.6738C17.6619 19.8866 17.6929 20.1137 17.675 20.3395C17.675 21.2312 17.6667 21.9478 17.6667 22.1728C17.6667 22.3478 17.7917 22.5562 18.125 22.4895C19.6241 21.9847 20.895 20.9636 21.7109 19.6085C22.5268 18.2534 22.8346 16.6524 22.5793 15.0913C22.3239 13.5302 21.5221 12.1107 20.317 11.0861C19.1118 10.0616 17.5818 9.49863 16 9.4978Z" fill="#292F36"/>
</svg>
