<svg width="32" height="32" viewBox="0 0 32 32" fill="none" xmlns="http://www.w3.org/2000/svg">
<g clip-path="url(#clip0_1_130)">
<path fill-rule="evenodd" clip-rule="evenodd" d="M17.3333 24H26.6667C28.8758 24 30.6667 22.2091 30.6667 20V6.66663C30.6667 4.45749 28.8758 2.66663 26.6667 2.66663H5.33333C3.12419 2.66663 1.33333 4.45749 1.33333 6.66663V20C1.33333 22.2091 3.12419 24 5.33333 24H14.6667V26.6666H10.6667C9.93029 26.6666 9.33333 27.2636 9.33333 28C9.33333 28.7363 9.93029 29.3333 10.6667 29.3333H21.3333C22.0697 29.3333 22.6667 28.7363 22.6667 28C22.6667 27.2636 22.0697 26.6666 21.3333 26.6666H17.3333V24ZM5.33333 5.33329C4.59695 5.33329 4 5.93025 4 6.66663V20C4 20.7363 4.59695 21.3333 5.33333 21.3333H26.6667C27.403 21.3333 28 20.7363 28 20V6.66663C28 5.93025 27.403 5.33329 26.6667 5.33329H5.33333Z" fill="#292F36"/>
</g>
<defs>
<clipPath id="clip0_1_130">
<rect width="32" height="32" fill="white"/>
</clipPath>
</defs>
</svg>
