<svg width="32" height="32" viewBox="0 0 32 32" fill="none" xmlns="http://www.w3.org/2000/svg">
<rect width="32" height="32" rx="16" fill="#98FAEC"/>
<g clip-path="url(#clip0_165_56)">
<path fill-rule="evenodd" clip-rule="evenodd" d="M14.4936 13.0125C15.1159 12.6896 15.8242 12.5711 16.5178 12.674C17.2252 12.7789 17.8801 13.1085 18.3858 13.6142C18.8915 14.1199 19.2212 14.7749 19.3261 15.4823C19.4289 16.1758 19.3105 16.8841 18.9876 17.5065C18.6646 18.1288 18.1537 18.6335 17.5274 18.9487C16.9012 19.2639 16.1915 19.3736 15.4992 19.2622C14.807 19.1508 14.1676 18.824 13.6718 18.3283C13.176 17.8325 12.8492 17.193 12.7378 16.5008C12.6264 15.8086 12.7361 15.0989 13.0514 14.4726C13.3666 13.8463 13.8712 13.3354 14.4936 13.0125ZM16.3222 13.9929C15.9061 13.9312 15.4811 14.0022 15.1077 14.196C14.7343 14.3897 14.4315 14.6963 14.2423 15.0721C14.0532 15.4478 13.9874 15.8736 14.0542 16.289C14.121 16.7043 14.3171 17.088 14.6146 17.3854C14.9121 17.6829 15.2957 17.879 15.7111 17.9458C16.1264 18.0127 16.5522 17.9468 16.928 17.7577C17.3038 17.5686 17.6103 17.2658 17.8041 16.8924C17.9978 16.519 18.0689 16.094 18.0072 15.6779C17.9442 15.2534 17.7464 14.8604 17.443 14.557C17.1396 14.2536 16.7466 14.0558 16.3222 13.9929Z" fill="#292F36"/>
<path d="M19.6667 11.6667C19.2985 11.6667 19 11.9652 19 12.3334C19 12.7016 19.2985 13.0001 19.6667 13.0001H19.6733C20.0415 13.0001 20.34 12.7016 20.34 12.3334C20.34 11.9652 20.0415 11.6667 19.6733 11.6667H19.6667Z" fill="#292F36"/>
<path fill-rule="evenodd" clip-rule="evenodd" d="M8.66667 12.6667C8.66667 10.4576 10.4575 8.66675 12.6667 8.66675H19.3333C21.5425 8.66675 23.3333 10.4576 23.3333 12.6667V19.3334C23.3333 21.5426 21.5425 23.3334 19.3333 23.3334H12.6667C10.4575 23.3334 8.66667 21.5426 8.66667 19.3334V12.6667ZM12.6667 10.0001C11.1939 10.0001 10 11.194 10 12.6667V19.3334C10 20.8062 11.1939 22.0001 12.6667 22.0001H19.3333C20.8061 22.0001 22 20.8062 22 19.3334V12.6667C22 11.194 20.8061 10.0001 19.3333 10.0001H12.6667Z" fill="#292F36"/>
</g>
<defs>
<clipPath id="clip0_165_56">
<rect width="16" height="16" fill="white" transform="translate(8 8)"/>
</clipPath>
</defs>
</svg>
